<svg version="1.2" xmlns="http://www.w3.org/2000/svg" viewBox="0 0 64 64" width="64" height="64">
	<title>New Project</title>
	<style>
		.s0 { fill: #ffffff } 
	</style>
	<path id="Binary On" fill-rule="evenodd" class="s0" d="m62 13.2v37.6q0 4.6-3.3 7.9-3.3 3.3-7.9 3.3h-37.5q-4.7 0-8-3.3-3.3-3.3-3.3-7.9v-37.6q0-4.6 3.3-7.9 3.3-3.3 8-3.3h37.5q4.6 0 7.9 3.3 3.3 3.3 3.3 7.9zm-38.4 40.3h2v-40.7h-2zm14.7-0.3h2v-40.2h-2zm-18.3-36.1c0-1.7-1.3-3-3-3-1.7 0-3 1.3-3 3 0 1.6 1.3 3 3 3 1.7 0 3-1.4 3-3zm28 0c0-1.7-1.3-3-3-3-1.7 0-3 1.3-3 3 0 1.6 1.3 3 3 3 1.7 0 3-1.4 3-3zm-13 8c0-1.7-1.3-3-3-3-1.7 0-3 1.3-3 3 0 1.6 1.3 3 3 3 1.7 0 3-1.4 3-3zm13 0c0-1.7-1.3-3-3-3-1.7 0-3 1.3-3 3 0 1.6 1.3 3 3 3 1.7 0 3-1.4 3-3zm0 8c0-1.7-1.3-3-3-3-1.7 0-3 1.3-3 3 0 1.6 1.3 3 3 3 1.7 0 3-1.4 3-3zm-28 8c0-1.7-1.3-3-3-3-1.7 0-3 1.3-3 3 0 1.6 1.3 3 3 3 1.7 0 3-1.4 3-3zm15 8c0-1.7-1.3-3-3-3-1.7 0-3 1.3-3 3 0 1.6 1.3 3 3 3 1.7 0 3-1.4 3-3z"/>
</svg>