<svg version="1.2" xmlns="http://www.w3.org/2000/svg" viewBox="0 0 64 64" width="64" height="64">
	<title>New Project</title>
	<style>
		.s0 { fill: #ffffff } 
	</style>
	<path id="Binary Off" fill-rule="evenodd" class="s0" d="m50.9 5.8h-37.8q-3 0-5.1 2.2-2.2 2.1-2.2 5.1v37.8q0 3 2.2 5.1 2.1 2.2 5.1 2.2h37.8q3 0 5.1-2.2 2.2-2.1 2.2-5.1v-37.8q0-3-2.2-5.1-2.1-2.2-5.1-2.2zm13.1 7.3v37.8q0 5.4-3.8 9.3-3.9 3.8-9.3 3.8h-37.8q-5.4 0-9.3-3.8-3.8-3.9-3.8-9.3v-37.8q0-5.4 3.8-9.3 3.9-3.8 9.3-3.8h37.8q5.4 0 9.3 3.8 3.8 3.9 3.8 9.3zm-40.4-0.3h2v40.7h-2zm14.7 0.1h2v40.2h-2zm-21.3 7c-1.7 0-3-1.3-3-3 0-1.6 1.3-3 3-3 1.7 0 3 1.4 3 3 0 1.7-1.3 3-3 3zm28 0c-1.7 0-3-1.3-3-3 0-1.6 1.3-3 3-3 1.7 0 3 1.4 3 3 0 1.7-1.3 3-3 3zm-13 8c-1.7 0-3-1.3-3-3 0-1.6 1.3-3 3-3 1.7 0 3 1.4 3 3 0 1.7-1.3 3-3 3zm13 0c-1.7 0-3-1.3-3-3 0-1.6 1.3-3 3-3 1.7 0 3 1.4 3 3 0 1.7-1.3 3-3 3zm0 8c-1.7 0-3-1.3-3-3 0-1.6 1.3-3 3-3 1.7 0 3 1.4 3 3 0 1.7-1.3 3-3 3zm-28 8c-1.7 0-3-1.3-3-3 0-1.6 1.3-3 3-3 1.7 0 3 1.4 3 3 0 1.7-1.3 3-3 3zm15 8c-1.7 0-3-1.3-3-3 0-1.6 1.3-3 3-3 1.7 0 3 1.4 3 3 0 1.7-1.3 3-3 3z"/>
</svg>