<svg version="1.2" xmlns="http://www.w3.org/2000/svg" viewBox="0 0 64 64" width="64" height="64">
	<title>New Project</title>
	<style>
		.s0 { fill: #ffffff } 
	</style>
	<path id="Face On" fill-rule="evenodd" class="s0" d="m62 13.2v37.6q0 4.6-3.3 7.9-3.3 3.3-7.9 3.3h-37.5q-4.7 0-8-3.3-3.3-3.3-3.3-7.9v-37.6q0-4.6 3.3-7.9 3.3-3.3 8-3.3h37.5q4.6 0 7.9 3.3 3.3 3.3 3.3 7.9zm-26.6 7.5q-0.2-0.3-0.6-0.3h-1.9q-0.4 0-0.6 0.3-0.3 0.2-0.3 0.6v10.5h-6.4q-0.4 0-0.7 0.3-0.2 0.2-0.2 0.6v1.9q0 0.4 0.2 0.7 0.3 0.3 0.7 0.3h9.2q0.4 0 0.6-0.3 0.3-0.3 0.3-0.7v-13.3q0-0.4-0.3-0.6zm4.4 25.1q-3.6 2.1-7.8 2.1-4.2 0-7.8-2.1-3.6-2.2-5.7-5.9-2.1-3.7-2.1-8.1 0-4.4 2.1-8.1 2.1-3.7 5.7-5.9 3.6-2.2 7.8-2.2 4.2 0 7.8 2.2 3.6 2.2 5.7 5.9 2.1 3.7 2.1 8.1 0 4.4-2.1 8.1-2.1 3.7-5.7 5.9zm3.2-33.7q-5-3.1-11-3.1-6 0-11 3.1-5.1 3-8 8.2-3 5.3-3 11.5 0 6.2 3 11.4 2.9 5.3 8 8.3 5 3.1 11 3.1 6 0 11-3.1 5.1-3 8-8.3 3-5.2 3-11.4 0-6.2-3-11.5-2.9-5.2-8-8.2z"/>
</svg>