<svg version="1.2" xmlns="http://www.w3.org/2000/svg" viewBox="0 0 64 64" width="64" height="64">
	<title>New Project</title>
	<style>
		.s0 { fill: #ffffff } 
	</style>
	<path id="Face Off" fill-rule="evenodd" class="s0" d="m50.9 5.8h-37.8q-3 0-5.1 2.2-2.2 2.1-2.2 5.1v37.8q0 3 2.2 5.1 2.1 2.2 5.1 2.2h37.8q3 0 5.1-2.2 2.2-2.1 2.2-5.1v-37.8q0-3-2.2-5.1-2.1-2.2-5.1-2.2zm13.1 7.3v37.8q0 5.4-3.8 9.3-3.9 3.8-9.3 3.8h-37.8q-5.4 0-9.3-3.8-3.8-3.9-3.8-9.3v-37.8q0-5.4 3.8-9.3 3.9-3.8 9.3-3.8h37.8q5.4 0 9.3 3.8 3.8 3.9 3.8 9.3zm-28.3 8.2v13.3q0 0.4-0.3 0.7-0.2 0.3-0.6 0.3h-9.2q-0.4 0-0.7-0.3-0.2-0.3-0.2-0.7v-1.9q0-0.4 0.2-0.6 0.3-0.3 0.7-0.3h6.4v-10.5q0-0.4 0.3-0.6 0.2-0.3 0.6-0.3h1.9q0.4 0 0.6 0.3 0.3 0.2 0.3 0.6zm9.8 18.6q2.1-3.7 2.1-8.1 0-4.4-2.1-8.1-2.1-3.7-5.7-5.9-3.6-2.2-7.8-2.2-4.2 0-7.8 2.2-3.6 2.2-5.7 5.9-2.1 3.7-2.1 8.1 0 4.4 2.1 8.1 2.1 3.7 5.7 5.9 3.6 2.1 7.8 2.1 4.2 0 7.8-2.1 3.6-2.2 5.7-5.9zm5.5-19.6q3 5.3 3 11.5 0 6.2-3 11.4-2.9 5.3-8 8.3-5 3.1-11 3.1-6 0-11-3.1-5.1-3-8-8.3-3-5.2-3-11.4 0-6.2 3-11.5 2.9-5.2 8-8.2 5-3.1 11-3.1 6 0 11 3.1 5.1 3 8 8.2z"/>
</svg>