<svg version="1.2" xmlns="http://www.w3.org/2000/svg" viewBox="0 0 64 64" width="64" height="64">
	<title>New Project</title>
	<style>
		.s0 { fill: #ffffff } 
	</style>
	<path id="Fib Spiral Off" fill-rule="evenodd" class="s0" d="m50.9 5.8h-37.8q-3 0-5.1 2.2-2.2 2.1-2.2 5.1v37.8q0 3 2.2 5.1 2.1 2.2 5.1 2.2h37.8q3 0 5.1-2.2 2.2-2.1 2.2-5.1v-37.8q0-3-2.2-5.1-2.1-2.2-5.1-2.2zm13.1 7.3v37.8q0 5.4-3.8 9.3-3.9 3.8-9.3 3.8h-37.8q-5.4 0-9.3-3.8-3.8-3.9-3.8-9.3v-37.8q0-5.4 3.8-9.3 3.9-3.8 9.3-3.8h37.8q5.4 0 9.3 3.8 3.8 3.9 3.8 9.3zm-14 16c0.5 3.2 0.8 6.3 0.2 9.9-0.7 4.2-2 8.2-4.1 10.3-2.2 2.2-3.6 3.7-6.5 5-3 1.2-5.4 1.7-8.6 1.7-3.3 0-5.2 0-8.1-1.3-3-1.3-4.7-2.8-6.8-5-2.2-2.1-2.9-8-2.9-11.3 0-4.1 4.1-9.2 7-10.7 5.4-2.9 10-2.1 13.1 0.3 5.6 4 5.7 8.5 4.9 12.3-0.9 3.9-3 3.4-4.7 4.6l-0.7-3.5c1.1-2.4 1.7-3.4 0.8-6.1-1.2-3.9-4.9-5.5-9.2-4.2-3.1 0.9-5.6 3.6-6.3 7.2-0.5 2.3 0.1 3.5 0.8 5.8 0.6 2 1.8 2.7 3.5 4.2 1.5 1.3 6.1 2.7 8.4 2.7 2.3 0 5.1-0.9 7.2-1.8 2.1-0.9 3.6-2.6 5.1-4.1 1.5-1.6 1.7-3.3 2.3-6.5 0.4-2.3-0.1-7.5-0.6-9.8-0.8-3.8-2.7-7.4-6.2-10.5-3.1-2.7-8.7-4.8-12.6-5.6l-3.8-6c3.8 0.6 10.5 2.3 13.8 4.1 2.6 1.4 7.4 4.4 9.2 7.8 1.8 3.5 4.3 6.2 4.8 10.5z"/>
</svg>