<svg version="1.2" xmlns="http://www.w3.org/2000/svg" viewBox="0 0 64 64" width="64" height="64">
	<title>New Project</title>
	<style>
		.s0 { fill: #ffffff } 
	</style>
	<path id="Fib Color Off" fill-rule="evenodd" class="s0" d="m50.9 5.8h-37.8q-3 0-5.1 2.2-2.2 2.1-2.2 5.1v37.8q0 3 2.2 5.1 2.1 2.2 5.1 2.2h37.8q3 0 5.1-2.2 2.2-2.1 2.2-5.1v-37.8q0-3-2.2-5.1-2.1-2.2-5.1-2.2zm13.1 7.3v37.8q0 5.4-3.8 9.3-3.9 3.8-9.3 3.8h-37.8q-5.4 0-9.3-3.8-3.8-3.9-3.8-9.3v-37.8q0-5.4 3.8-9.3 3.9-3.8 9.3-3.8h37.8q5.4 0 9.3 3.8 3.8 3.9 3.8 9.3zm-36.2 5.9h25.2v25.2h-25.2zm-16.8 10.8h14.4v14.4h-14.4zm0-10.8h8.4v8.4h-8.4zm10.8 0h3.6v3.6h-3.6zm0 4.8h3.6v3.6h-3.6z"/>
</svg>