<svg version="1.2" xmlns="http://www.w3.org/2000/svg" viewBox="0 0 64 64" width="64" height="64">
	<title>New Project</title>
	<style>
		.s0 { fill: #ffffff } 
	</style>
	<path id="Fib Color On" fill-rule="evenodd" class="s0" d="m62 13.2v37.6q0 4.6-3.3 7.9-3.3 3.3-7.9 3.3h-37.5q-4.7 0-8-3.3-3.3-3.3-3.3-7.9v-37.6q0-4.6 3.3-7.9 3.3-3.3 8-3.3h37.5q4.6 0 7.9 3.3 3.3 3.3 3.3 7.9zm-34.2 31h25.2v-25.2h-25.2zm-16.8 0h14.4v-14.4h-14.4zm0-16.8h8.4v-8.4h-8.4zm10.8-4.8h3.6v-3.6h-3.6zm0 4.8h3.6v-3.6h-3.6z"/>
</svg>