<svg version="1.2" xmlns="http://www.w3.org/2000/svg" viewBox="0 0 64 64" width="64" height="64">
	<title>New Project</title>
	<style>
		.s0 { fill: #ffffff } 
	</style>
	<path id="Fib Spiral On" fill-rule="evenodd" class="s0" d="m62 13.2v37.6q0 4.6-3.3 7.9-3.3 3.3-7.9 3.3h-37.5q-4.7 0-8-3.3-3.3-3.3-3.3-7.9v-37.6q0-4.6 3.3-7.9 3.3-3.3 8-3.3h37.5q4.6 0 7.9 3.3 3.3 3.3 3.3 7.9zm-16.8 5.4c-1.8-3.4-6.6-6.4-9.2-7.8-3.3-1.8-10-3.5-13.8-4.1l3.8 6c3.9 0.8 9.5 2.9 12.6 5.6 3.5 3.1 5.4 6.7 6.2 10.5 0.5 2.3 1 7.5 0.6 9.8-0.6 3.2-0.8 4.9-2.3 6.5-1.5 1.5-3 3.2-5.1 4.1-2.1 0.9-4.9 1.8-7.2 1.8-2.3 0-6.9-1.4-8.4-2.7-1.7-1.5-2.9-2.2-3.5-4.2-0.7-2.3-1.3-3.5-0.8-5.8 0.7-3.6 3.2-6.3 6.3-7.2 4.3-1.3 8 0.3 9.2 4.2 0.9 2.7 0.3 3.7-0.8 6.1l0.7 3.5c1.7-1.2 3.8-0.7 4.7-4.6 0.8-3.8 0.7-8.3-4.9-12.3-3.1-2.4-7.7-3.2-13.1-0.3-2.9 1.5-7 6.6-7 10.7 0 3.3 0.7 9.2 2.9 11.3 2.1 2.2 3.8 3.7 6.8 5 2.9 1.3 4.8 1.3 8.1 1.3 3.2 0 5.6-0.5 8.6-1.7 2.9-1.3 4.3-2.8 6.5-5 2.1-2.1 3.4-6.1 4.1-10.3 0.6-3.6 0.3-6.7-0.2-9.9-0.5-4.3-3-7-4.8-10.5z"/>
</svg>