<svg version="1.2" xmlns="http://www.w3.org/2000/svg" viewBox="0 0 64 64" width="64" height="64">
	<title>New Project</title>
	<style>
		.s0 { fill: #ffffff } 
	</style>
	<path id="Segmented On" fill-rule="evenodd" class="s0" d="m62 13.2v37.6q0 4.6-3.3 7.9-3.3 3.3-7.9 3.3h-37.5q-4.7 0-8-3.3-3.3-3.3-3.3-7.9v-37.6q0-4.6 3.3-7.9 3.3-3.3 8-3.3h37.5q4.6 0 7.9 3.3 3.3 3.3 3.3 7.9zm-30 10.8q-3 0-5.2 2 0.2-0.5 0.2-1c0-1.1-0.9-2-2-2-1.1 0-2 0.9-2 2 0 1.1 0.9 2 2 2q0.5 0 1-0.2-2 2.2-2 5.2 0 3.3 2.3 5.7 2.4 2.3 5.7 2.3 3.3 0 5.7-2.3 2.3-2.4 2.3-5.7 0-3.3-2.3-5.7-2.4-2.3-5.7-2.3zm0 20q-5 0-8.5-3.5-3.5-3.5-3.5-8.5 0-5 3.5-8.5 3.5-3.5 8.5-3.5 5 0 8.5 3.5 3.5 3.5 3.5 8.5 0 5-3.5 8.5-3.5 3.5-8.5 3.5zm0-28q-6.6 0-11.3 4.7-4.7 4.7-4.7 11.3 0 6.6 4.7 11.3 4.7 4.7 11.3 4.7 6.6 0 11.3-4.7 4.7-4.7 4.7-11.3 0-6.6-4.7-11.3-4.7-4.7-11.3-4.7zm14.1 30.1q-2.6 2.7-6.3 4.3-3.7 1.6-7.8 1.6-4.1 0-7.8-1.6-3.7-1.6-6.3-4.3-2.7-2.6-4.3-6.3-1.6-3.7-1.6-7.8 0-4.1 1.6-7.8 1.6-3.7 4.3-6.3 2.6-2.7 6.3-4.3 3.7-1.6 7.8-1.6 4.1 0 7.8 1.6 3.7 1.6 6.3 4.3 2.7 2.6 4.3 6.3 1.3 3.1 1.5 6.3c-0.2-0.8-1-1.5-1.9-1.5-1.1 0-2 0.9-2 2 0 1.1 0.9 2 2 2 1 0 1.9-0.8 2-1.8q0 0.4 0 0.8 0 4.1-1.6 7.8-1.6 3.7-4.3 6.3zm-2.1-34.9q-5.5-3.2-12-3.2-6.5 0-12 3.2-5.6 3.2-8.8 8.8-3.2 5.5-3.2 12 0 6.5 3.2 12 3.2 5.6 8.8 8.8 5.5 3.2 12 3.2 6.5 0 12-3.2 5.6-3.2 8.8-8.8 3.2-5.5 3.2-12 0-6.5-3.2-12-3.2-5.6-8.8-8.8z"/>
</svg>