<svg version="1.2" xmlns="http://www.w3.org/2000/svg" viewBox="0 0 256 256" width="256" height="256">
	<title>TimeTicks-svg</title>
	<style>
		tspan { white-space:pre } 
		.s0 { fill: none;stroke: #000000;stroke-width: 3 } 
		.t1 { font-size: 12px;fill: #000000;font-weight: 400;font-family: "DejaVuSans", "DejaVu Sans" } 
	</style>
	<path id="Layer 3" class="s0" d="m122 74c6 0.1 9.2 1.8 13 3.2m-22-69.2c11 0.3 34.1 11.1 30.8 9.7m-28.8 7.3c10.7 0.6 19.7 4.7 27 8m-24.8 8.6c10.1 1.4 15.1 4.5 21.9 7.4m-20.4 5.1c4.5 0.3 17.1 4.5 19 5.6m-17.7 4.3c3 0 11.6 2.2 16 5"/>
	<path id="Layer 3 copy" class="s0" d="m135.1 182.2c-6-0.1-9.2-1.8-13-3.2m22 69.2c-11-0.3-34.1-11.1-30.8-9.7m28.8-7.3c-10.7-0.6-19.7-4.7-27-8m24.8-8.6c-10.1-1.4-15.1-4.5-21.9-7.4m20.4-5.1c-4.5-0.3-17.1-4.6-19-5.6m17.7-4.3c-3-0.1-11.6-2.2-16-5"/>
	<text id="6" style="transform: matrix(1,0,0,1,104,15)" >
		<tspan x="0" y="0" class="t1">6
</tspan>
	</text>
	<text id="5" style="transform: matrix(1,0,0,1,144,40)" >
		<tspan x="0" y="0" class="t1">5
</tspan>
	</text>
	<text id="4" style="transform: matrix(1,0,0,1,107,47)" >
		<tspan x="0" y="0" class="t1">4
</tspan>
	</text>
	<text id="3" style="transform: matrix(1,0,0,1,139,67)" >
		<tspan x="0" y="0" class="t1">3
</tspan>
	</text>
	<text id="2" style="transform: matrix(1,0,0,1,111,71)" >
		<tspan x="0" y="0" class="t1">2
</tspan>
	</text>
	<text id="1" style="transform: matrix(1,0,0,1,136,84)" >
		<tspan x="0" y="0" class="t1">1
</tspan>
	</text>
	<text id="7" style="transform: matrix(1,0,0,1,137,187)" >
		<tspan x="0" y="0" class="t1">7
</tspan>
	</text>
	<text id="8" style="transform: matrix(1,0,0,1,112,194)" >
		<tspan x="0" y="0" class="t1">8
</tspan>
	</text>
	<text id="9" style="transform: matrix(1,0,0,1,140,209)" >
		<tspan x="0" y="0" class="t1">9
</tspan>
	</text>
	<text id="10" style="transform: matrix(1,0,0,1,101,215)" >
		<tspan x="0" y="0" class="t1">10
</tspan>
	</text>
	<text id="11" style="transform: matrix(1,0,0,1,143,238)" >
		<tspan x="0" y="0" class="t1">11
</tspan>
	</text>
	<text id="12" style="transform: matrix(1,0,0,1,96,245)" >
		<tspan x="0" y="0" class="t1">12
</tspan>
	</text>
</svg>