<svg version="1.2" xmlns="http://www.w3.org/2000/svg" viewBox="0 0 64 64" width="64" height="64">
	<title>New Project</title>
	<style>
		.s0 { fill: #ffffff } 
	</style>
	<path id="Week Off" fill-rule="evenodd" class="s0" d="m50.9 5.8h-37.8q-3 0-5.1 2.2-2.2 2.1-2.2 5.1v37.8q0 3 2.2 5.1 2.1 2.2 5.1 2.2h37.8q3 0 5.1-2.2 2.2-2.1 2.2-5.1v-37.8q0-3-2.2-5.1-2.1-2.2-5.1-2.2zm13.1 7.3v37.8q0 5.4-3.8 9.3-3.9 3.8-9.3 3.8h-37.8q-5.4 0-9.3-3.8-3.8-3.9-3.8-9.3v-37.8q0-5.4 3.8-9.3 3.9-3.8 9.3-3.8h37.8q5.4 0 9.3 3.8 3.8 3.9 3.8 9.3zm-48.9 37.4h33.8v-24.3h-33.8zm9.2-28.9v-6.8q0-0.4-0.2-0.6-0.2-0.2-0.6-0.2h-1.5q-0.3 0-0.6 0.2-0.2 0.2-0.2 0.6v6.8q0 0.3 0.2 0.6 0.3 0.2 0.6 0.2h1.5q0.4 0 0.6-0.2 0.2-0.3 0.2-0.6zm18.5 0v-6.8q0-0.4-0.2-0.6-0.3-0.2-0.6-0.2h-1.5q-0.4 0-0.6 0.2-0.2 0.2-0.2 0.6v6.8q0 0.3 0.2 0.6 0.2 0.2 0.6 0.2h1.5q0.3 0 0.6-0.2 0.2-0.3 0.2-0.6zm9.2-1.5v30.4q0 1.2-0.9 2.1-0.9 0.9-2.2 0.9h-33.8q-1.3 0-2.2-0.9-0.9-0.9-0.9-2.1v-30.4q0-1.2 0.9-2.1 0.9-0.9 2.2-0.9h3.1v-2.3q0-1.6 1.1-2.7 1.1-1.1 2.7-1.1h1.5q1.6 0 2.8 1.1 1.1 1.1 1.1 2.7v2.3h9.2v-2.3q0-1.6 1.1-2.7 1.2-1.1 2.8-1.1h1.5q1.6 0 2.7 1.1 1.1 1.1 1.1 2.7v2.3h3.1q1.3 0 2.2 0.9 0.9 0.9 0.9 2.1z"/>
</svg>