<svg version="1.2" xmlns="http://www.w3.org/2000/svg" viewBox="0 0 64 64" width="64" height="64">
	<title>New Project</title>
	<style>
		.s0 { fill: #ffffff } 
	</style>
	<path id="Week On" fill-rule="evenodd" class="s0" d="m62 13.2v37.6q0 4.6-3.3 7.9-3.3 3.3-7.9 3.3h-37.5q-4.7 0-8-3.3-3.3-3.3-3.3-7.9v-37.6q0-4.6 3.3-7.9 3.3-3.3 8-3.3h37.5q4.6 0 7.9 3.3 3.3 3.3 3.3 7.9zm-46.9 13h33.8v24.3h-33.8zm9-4q-0.2 0.2-0.6 0.2h-1.5q-0.3 0-0.6-0.2-0.2-0.2-0.2-0.5v-6.9q0-0.3 0.2-0.5 0.3-0.2 0.6-0.2h1.5q0.4 0 0.6 0.2 0.2 0.2 0.2 0.5v6.9q0 0.3-0.2 0.5zm18.5 0q-0.3 0.2-0.6 0.2h-1.5q-0.4 0-0.6-0.2-0.2-0.2-0.2-0.5v-6.9q0-0.3 0.2-0.5 0.2-0.2 0.6-0.2h1.5q0.3 0 0.6 0.2 0.2 0.2 0.2 0.5v6.9q0 0.3-0.2 0.5zm8.5-4.2q-0.9-0.9-2.2-0.9h-3.1v-2.3q0-1.5-1.1-2.7-1.1-1.1-2.7-1.1h-1.5q-1.6 0-2.8 1.1-1.1 1.2-1.1 2.7v2.3h-9.2v-2.3q0-1.5-1.1-2.7-1.2-1.1-2.8-1.1h-1.5q-1.6 0-2.7 1.1-1.1 1.2-1.1 2.7v2.3h-3.1q-1.3 0-2.2 0.9-0.9 0.9-0.9 2.2v30.4q0 1.2 0.9 2.1 0.9 0.9 2.2 0.9h33.8q1.3 0 2.2-0.9 0.9-0.9 0.9-2.1v-30.4q0-1.3-0.9-2.2z"/>
</svg>